<?xml version="1.0" encoding="UTF-8"?>
<svg width="677px" height="505px" viewBox="0 0 677 505" version="1.1" xmlns="http://www.w3.org/2000/svg" xmlns:xlink="http://www.w3.org/1999/xlink">
    <!-- Generator: Sketch 54.1 (76490) - https://sketchapp.com -->
    <title>undraw_good_team_m7uu</title>
    <desc>Created with Sketch.</desc>
    <g id="studio" stroke="none" stroke-width="1" fill="none" fill-rule="evenodd">
        <g id="undraw_good_team_m7uu">
            <path d="M236.408457,154.762676 L323.707376,154.762676" id="Path" stroke="#3F3D56" stroke-width="2"></path>
            <ellipse id="Oval" fill="#2F2E41" fill-rule="nonzero" transform="translate(125.385628, 248.426065) rotate(-69.082170) translate(-125.385628, -248.426065) " cx="125.385628" cy="248.426065" rx="23.9465786" ry="7.51757065"></ellipse>
            <path d="M673.738324,308.756709 C683.235537,379.437849 670.303208,450.195903 604.5244,477.748921 C538.745591,505.301939 463.0852,474.313805 435.532188,408.534997 C407.979176,342.756189 472.988717,303.397998 504.746112,239.542785 C569.235921,109.871898 644.244953,89.2579801 673.738324,308.756709 Z" id="Path" fill="#F2F2F2" fill-rule="nonzero"></path>
            <ellipse id="Oval" fill="#3F3D56" fill-rule="nonzero" cx="555.318127" cy="481.621107" rx="103.061224" ry="14.0206975"></ellipse>
            <polygon id="Rectangle" fill="#2F2E41" fill-rule="nonzero" transform="translate(502.398408, 449.476791) rotate(-105.452270) translate(-502.398408, -449.476791) " points="495.123498 436.442577 509.673318 436.442577 509.673318 462.511005 495.123498 462.511005"></polygon>
            <ellipse id="Oval" fill="#2F2E41" fill-rule="nonzero" transform="translate(486.398280, 450.754780) rotate(-15.452270) translate(-486.398280, -450.754780) " cx="486.39828" cy="450.75478" rx="4.54681873" ry="12.1248499"></ellipse>
            <ellipse id="Oval" fill="#2F2E41" fill-rule="nonzero" transform="translate(559.754701, 396.695182) rotate(-82.281110) translate(-559.754701, -396.695182) " cx="559.754701" cy="396.695182" rx="23.9465786" ry="7.51757065"></ellipse>
            <circle id="Oval" fill="#2F2E41" fill-rule="nonzero" cx="555.066452" cy="441.525992" r="47.8931573"></circle>
            <polygon id="Rectangle" fill="#2F2E41" fill-rule="nonzero" transform="translate(502.398409, 440.989395) rotate(-105.452270) translate(-502.398409, -440.989395) " points="495.123499 427.955181 509.673319 427.955181 509.673319 454.023608 495.123499 454.023608"></polygon>
            <ellipse id="Oval" fill="#2F2E41" fill-rule="nonzero" transform="translate(486.398282, 442.267386) rotate(-15.452270) translate(-486.398282, -442.267386) " cx="486.398282" cy="442.267386" rx="4.54681873" ry="12.1248499"></ellipse>
            <circle id="Oval" fill="#FFFFFF" fill-rule="nonzero" cx="567.642455" cy="414.089633" r="16.3685474"></circle>
            <circle id="Oval" fill="#3F3D56" fill-rule="nonzero" cx="572.876941" cy="406.858937" r="5.45618247"></circle>
            <path d="M610.373785,474.437806 C628.096987,473.550807 641.670805,456.9733 640.69176,437.410897 C639.712715,417.848494 624.551548,402.709098 606.828352,403.596097 C589.105155,404.483096 586.324018,418.395956 587.303045,437.958358 C588.282072,457.520761 592.650589,475.324806 610.373785,474.437806 Z" id="Path" fill="#6C63FF" fill-rule="nonzero"></path>
            <path d="M535.492646,421.26207 C529.486609,421.746491 524.224654,417.271265 523.738553,411.265364 C523.252453,405.259463 527.726207,399.996257 533.731972,399.508477 C539.739065,399.02227 541.377296,403.791289 541.863503,409.798382 C542.349709,415.805475 541.499733,420.77587 535.492646,421.26207 Z" id="Path" fill="#FFFFFF" fill-rule="nonzero"></path>
            <polyline id="Path" stroke="#3F3D56" stroke-width="2" points="29.9871789 218.868697 298.24524 218.868697 339.835294 239.130534 406.101236 271.41416 449.428175 190.291639 572.034658 190.291639"></polyline>
            <circle id="Oval" fill="#6C63FF" fill-rule="nonzero" cx="135.077746" cy="227.356305" r="8.29664682"></circle>
            <circle id="Oval" fill="#6C63FF" fill-rule="nonzero" cx="212.513112" cy="218.86891" r="8.29664682"></circle>
            <circle id="Oval" fill="#6C63FF" fill-rule="nonzero" cx="339.728353" cy="239.149601" r="8.29664682"></circle>
            <circle id="Oval" fill="#6C63FF" fill-rule="nonzero" cx="518.567168" cy="190.291572" r="8.29664682"></circle>
            <circle id="Oval" fill="#6C63FF" fill-rule="nonzero" cx="431.913308" cy="222.556307" r="8.29664682"></circle>
            <circle id="Oval" stroke="#3F3D56" stroke-width="2" cx="259.214463" cy="352.494165" r="8.94544754"></circle>
            <ellipse id="Oval" fill="#3F3D56" fill-rule="nonzero" cx="103.061224" cy="490.714744" rx="103.061224" ry="14.0206975"></ellipse>
            <circle id="Oval" fill="#2F2E41" fill-rule="nonzero" cx="97.4865519" cy="422.209342" r="47.8931573"></circle>
            <rect id="Rectangle" fill="#2F2E41" fill-rule="nonzero" x="75.661822" y="459.796377" width="14.5498199" height="26.0684274"></rect>
            <rect id="Rectangle" fill="#2F2E41" fill-rule="nonzero" x="104.761462" y="459.796377" width="14.5498199" height="26.0684274"></rect>
            <ellipse id="Oval" fill="#2F2E41" fill-rule="nonzero" cx="87.786672" cy="486.167926" rx="12.1248499" ry="4.54681873"></ellipse>
            <ellipse id="Oval" fill="#2F2E41" fill-rule="nonzero" cx="116.886312" cy="485.561683" rx="12.1248499" ry="4.54681873"></ellipse>
            <circle id="Oval" fill="#FFFFFF" fill-rule="nonzero" cx="98.6990369" cy="410.084492" r="16.3685474"></circle>
            <circle id="Oval" fill="#3F3D56" fill-rule="nonzero" cx="98.6990369" cy="410.084492" r="5.45618247"></circle>
            <path d="M51.028595,377.670082 C47.1614408,360.351201 59.5231739,342.851205 78.6393032,338.582743 C97.7554326,334.31428 116.387053,344.893727 120.254213,362.212614 C124.121373,379.531501 111.452415,385.918999 92.3362915,390.187462 C73.2201682,394.455924 54.8957249,394.988963 51.028595,377.670082 Z" id="Path" fill="#6C63FF" fill-rule="nonzero"></path>
            <circle id="Oval" fill="#2F2E41" fill-rule="nonzero" cx="81.1180045" cy="284.592295" r="47.8931573"></circle>
            <rect id="Rectangle" fill="#2F2E41" fill-rule="nonzero" x="59.2932746" y="322.17933" width="14.5498199" height="26.0684274"></rect>
            <rect id="Rectangle" fill="#2F2E41" fill-rule="nonzero" x="88.3929145" y="322.17933" width="14.5498199" height="26.0684274"></rect>
            <ellipse id="Oval" fill="#2F2E41" fill-rule="nonzero" cx="71.4181245" cy="348.550879" rx="12.1248499" ry="4.54681873"></ellipse>
            <ellipse id="Oval" fill="#2F2E41" fill-rule="nonzero" cx="100.517764" cy="347.944636" rx="12.1248499" ry="4.54681873"></ellipse>
            <circle id="Oval" fill="#FFFFFF" fill-rule="nonzero" cx="82.3304895" cy="272.467445" r="16.3685474"></circle>
            <circle id="Oval" fill="#3F3D56" fill-rule="nonzero" cx="82.3304895" cy="272.467445" r="5.45618247"></circle>
            <path d="M34.6600475,240.053035 C30.7928933,222.734154 43.1546265,205.234158 62.2707558,200.965696 C81.3868852,196.697233 100.018506,207.27668 103.885666,224.595567 C107.752826,241.914454 95.0838674,248.301953 75.9677441,252.570415 C56.8516208,256.838878 38.5271775,257.371916 34.6600475,240.053035 Z" id="Path" fill="#6C63FF" fill-rule="nonzero"></path>
            <ellipse id="Oval" fill="#2F2E41" fill-rule="nonzero" transform="translate(27.174344, 262.369652) rotate(-64.625740) translate(-27.174344, -262.369652) " cx="27.1743444" cy="262.369652" rx="7.51757065" ry="23.9465786"></ellipse>
            <path d="M57.5930372,301.8702 C57.5930372,306.557667 69.6624827,315.813778 83.0552221,315.813778 C96.4479615,315.813778 109.005159,302.617091 109.005159,297.929624 C109.005159,293.242157 96.4479615,298.838988 83.0552221,298.838988 C69.6624827,298.838988 57.5930372,297.182746 57.5930372,301.8702 Z" id="Path" fill="#FFFFFF" fill-rule="nonzero"></path>
            <rect id="Rectangle" fill="#6C63FF" fill-rule="nonzero" x="506.500074" y="342.351006" width="76.4647781" height="38.8973007"></rect>
            <rect id="Rectangle" stroke="#3F3D56" stroke-width="2" x="500.515879" y="348.667659" width="76.4647781" height="38.8973007"></rect>
            <rect id="Rectangle" fill="#FF6584" fill-rule="nonzero" x="137.376623" y="120.642257" width="21.8247299" height="21.8247299"></rect>
            <rect id="Rectangle" stroke="#3F3D56" stroke-width="2" x="131.920441" y="113.367347" width="21.8247299" height="21.8247299"></rect>
            <circle id="Oval" fill="#2F2E41" fill-rule="nonzero" cx="549.287281" cy="114.86482" r="47.8931573"></circle>
            <polygon id="Rectangle" fill="#2F2E41" fill-rule="nonzero" transform="translate(572.620183, 162.081866) rotate(169.739174) translate(-572.620183, -162.081866) " points="565.345252 149.047614 579.895115 149.047614 579.895115 175.116119 565.345252 175.116119"></polygon>
            <polygon id="Rectangle" fill="#2F2E41" fill-rule="nonzero" transform="translate(543.987511, 167.268247) rotate(169.738940) translate(-543.987511, -167.268247) " points="536.712601 154.234033 551.262421 154.234033 551.262421 180.302461 536.712601 180.302461"></polygon>
            <ellipse id="Oval" fill="#2F2E41" fill-rule="nonzero" transform="translate(543.812578, 183.318437) rotate(-40.261060) translate(-543.812578, -183.318437) " cx="543.812578" cy="183.318437" rx="12.1248499" ry="4.54681873"></ellipse>
            <ellipse id="Oval" fill="#2F2E41" fill-rule="nonzero" transform="translate(571.850263, 178.242814) rotate(-40.261060) translate(-571.850263, -178.242814) " cx="571.850263" cy="178.242814" rx="12.1248499" ry="4.54681873"></ellipse>
            <circle id="Oval" fill="#FFFFFF" fill-rule="nonzero" cx="545.934348" cy="103.149875" r="16.3685474"></circle>
            <circle id="Oval" fill="#3F3D56" fill-rule="nonzero" cx="539.20693" cy="97.2826241" r="5.45618247"></circle>
            <path d="M587.068296,62.7621821 C587.788512,45.0314077 572.507163,30.0133564 552.936425,29.2183846 C533.365686,28.4234127 516.9166,42.1525682 516.196365,59.8833426 C515.476131,77.6141169 529.080291,81.6426831 548.651036,82.437655 C568.221781,83.2326268 586.348061,80.4929442 587.068296,62.7621821 Z" id="Path" fill="#6C63FF" fill-rule="nonzero"></path>
            <ellipse id="Oval" fill="#2F2E41" fill-rule="nonzero" transform="translate(505.064569, 106.139479) rotate(-77.089900) translate(-505.064569, -106.139479) " cx="505.064569" cy="106.139479" rx="7.51757065" ry="23.9465786"></ellipse>
            <ellipse id="Oval" fill="#2F2E41" fill-rule="nonzero" transform="translate(599.077024, 121.773601) rotate(-77.089900) translate(-599.077024, -121.773601) " cx="599.077024" cy="121.773601" rx="7.51757065" ry="23.9465786"></ellipse>
            <path d="M562.441161,133.738901 C563.135636,137.575161 561.730736,141.490509 558.755674,144.010071 C555.780613,146.529633 551.687373,147.270628 548.017837,145.95393 C544.348302,144.637232 541.659961,141.462879 540.965488,137.626619 C539.891923,131.696276 544.477075,129.597768 550.407418,128.524204 C556.33776,127.450639 561.367597,127.808559 562.441161,133.738901 Z" id="Path" fill="#FFFFFF" fill-rule="nonzero"></path>
            <path d="M432.010477,60.0180072 L487.178544,102.454982" id="Path" stroke="#3F3D56" stroke-width="2"></path>
            <circle id="Oval" fill="#FF6584" fill-rule="nonzero" cx="405.942049" cy="41.2244898" r="41.2244898"></circle>
            <ellipse id="Oval" fill="#2F2E41" fill-rule="nonzero" transform="translate(541.778563, 408.075130) rotate(-82.281110) translate(-541.778563, -408.075130) " cx="541.778563" cy="408.07513" rx="23.9465786" ry="7.51757065"></ellipse>
            <circle id="Oval" fill="#6C63FF" fill-rule="nonzero" cx="41.716401" cy="476.521971" r="8.29664682"></circle>
            <rect id="Rectangle" fill="#FF6584" fill-rule="nonzero" x="155.563898" y="466.806723" width="21.8247299" height="21.8247299"></rect>
            <circle id="Oval" fill="#6C63FF" fill-rule="nonzero" cx="155.68999" cy="481.371911" r="8.29664682"></circle>
            <circle id="Oval" fill="#6C63FF" fill-rule="nonzero" cx="280.057917" cy="154.607205" r="8.29664682"></circle>
            <circle id="Oval" fill="#FF6584" fill-rule="nonzero" cx="441.175129" cy="411.791513" r="3.96201903"></circle>
            <path d="M460.586275,477.552165 L460.586275,432.440824" id="Path" stroke="#3F3D56" stroke-width="2" fill="#3F3D56" fill-rule="nonzero"></path>
            <circle id="Oval" fill="#3F3D56" fill-rule="nonzero" cx="460.586275" cy="432.440824" r="6.37938067"></circle>
            <path d="M460.586268,460.243875 C460.586268,460.243875 459.674928,440.642885 440.992456,442.921235" id="Path" fill="#3F3D56" fill-rule="nonzero"></path>
        </g>
    </g>
</svg>