<?xml version="1.0" encoding="UTF-8"?>
<svg width="714px" height="514px" viewBox="0 0 714 514" version="1.1" xmlns="http://www.w3.org/2000/svg" xmlns:xlink="http://www.w3.org/1999/xlink">
    <!-- Generator: Sketch 54.1 (76490) - https://sketchapp.com -->
    <title>undraw_experience_design_eq3j</title>
    <desc>Created with Sketch.</desc>
    <g id="studio" stroke="none" stroke-width="1" fill="none" fill-rule="evenodd">
        <g id="undraw_experience_design_eq3j" transform="translate(-6.000000, 0.000000)" fill-rule="nonzero">
            <circle id="Oval" fill="#6C63FF" opacity="0.4" cx="475.445367" cy="262.310852" r="56.6005443"></circle>
            <rect id="Rectangle" fill="#3F3D56" x="161.110473" y="340.627822" width="315.626973" height="85.543759"></rect>
            <path d="M456.521531,128.688727 L443.918657,134.653443 L455.072752,126.313 C453.259903,123.483369 451.223353,120.803465 448.982633,118.298988 L394.325547,131.884288 L443.696332,113.051033 C441.440259,111.060471 439.044343,109.234258 436.52702,107.586446 L353.24242,121.001411 C344.399706,132.05918 339.579277,145.794838 339.572468,159.953504 L464.938322,159.953504 C464.93324,148.972776 462.029851,138.187928 456.521531,128.688727 L456.521531,128.688727 Z" id="Path" fill="#F2F2F2"></path>
            <path d="M466.504031,37.0163921 C416.406949,12.5822474 361.388056,-0.0789212373 305.649928,-4.79540452e-14 C192.208838,-4.79540452e-14 90.786579,51.438856 23.4216505,132.26001 C138.777704,106.984432 339.621789,63.2309673 466.504031,37.0163921 Z" id="Path" fill="#F2F2F2"></path>
            <path d="M401.417929,159.953504 L358.746055,96.5695457 C358.746055,96.5695457 423.369269,119.129935 416.035241,159.953504 L401.417929,159.953504 Z" id="Path" fill="#3F3D56"></path>
            <path d="M403.092831,159.953504 L445.764706,96.5695457 C445.764706,96.5695457 381.141492,119.129935 388.475527,159.953504 L403.092831,159.953504 Z" id="Path" fill="#6C63FF"></path>
            <path d="M477.106169,513.190232 L160.74175,513.190232 L160.74175,41.2246657 L477.106169,41.2246657 L477.106169,513.190232 Z" id="Shape" stroke="#2F2E41" fill="#2F2E41"></path>
            <rect id="Rectangle" fill="#2F2E41" x="161.84792" y="52.4199471" width="314.889527" height="1.4748924"></rect>
            <circle id="Oval" fill="#6C63FF" cx="169.959828" cy="47.1242353" r="2.94978479"></circle>
            <circle id="Oval" fill="#6C63FF" cx="178.071736" cy="47.1242353" r="2.94978479"></circle>
            <circle id="Oval" fill="#6C63FF" cx="186.183644" cy="47.1242353" r="2.94978479"></circle>
            <rect id="Rectangle" fill="#6C63FF" x="172.909613" y="62.6106055" width="13.2740316" height="7.37446198"></rect>
            <rect id="Rectangle" fill="#6C63FF" x="172.909613" y="120.868855" width="64.8952654" height="7.37446198"></rect>
            <rect id="Rectangle" fill="#F2F2F2" transform="translate(436.177905, 66.297836) rotate(-180.000000) translate(-436.177905, -66.297836) " x="403.730273" y="62.6106055" width="64.8952654" height="7.37446198"></rect>
            <rect id="Rectangle" fill="#F2F2F2" x="172.909613" y="133.40544" width="109.142037" height="4.42467719"></rect>
            <rect id="Rectangle" fill="#F2F2F2" x="172.909613" y="142.992241" width="103.242468" height="4.42467719"></rect>
            <rect id="Rectangle" fill="#F2F2F2" x="172.909613" y="152.579042" width="75.2195122" height="4.42467719"></rect>
            <rect id="Rectangle" fill="#F2F2F2" x="197.982783" y="283.844465" width="42.7718795" height="4.42467719"></rect>
            <rect id="Rectangle" fill="#F2F2F2" x="197.982783" y="293.431265" width="40.4598824" height="4.42467719"></rect>
            <rect id="Rectangle" fill="#F2F2F2" x="197.982783" y="303.018066" width="29.4779147" height="4.42467719"></rect>
            <rect id="Rectangle" fill="#F2F2F2" x="297.53802" y="283.844465" width="42.7718795" height="4.42467719"></rect>
            <rect id="Rectangle" fill="#F2F2F2" x="297.53802" y="293.431265" width="40.4598824" height="4.42467719"></rect>
            <rect id="Rectangle" fill="#F2F2F2" x="297.53802" y="303.018066" width="29.4779147" height="4.42467719"></rect>
            <rect id="Rectangle" fill="#F2F2F2" x="400.780488" y="283.844465" width="42.7718795" height="4.42467719"></rect>
            <rect id="Rectangle" fill="#F2F2F2" x="400.780488" y="293.431265" width="40.4598824" height="4.42467719"></rect>
            <rect id="Rectangle" fill="#F2F2F2" x="400.780488" y="303.018066" width="29.4779147" height="4.42467719"></rect>
            <rect id="Rectangle" fill="#6C63FF" x="264.352941" y="451.244752" width="64.8952654" height="7.37446198"></rect>
            <rect id="Rectangle" fill="#F2F2F2" x="264.352941" y="463.781337" width="109.142037" height="4.42467719"></rect>
            <rect id="Rectangle" fill="#F2F2F2" x="264.352941" y="473.368138" width="103.242468" height="4.42467719"></rect>
            <rect id="Rectangle" fill="#F2F2F2" x="264.352941" y="482.954938" width="75.2195122" height="4.42467719"></rect>
            <rect id="Rectangle" fill="#6C63FF" opacity="0.3" x="192.451937" y="200.513045" width="256.631277" height="1.4748924"></rect>
            <rect id="Rectangle" fill="#6C63FF" opacity="0.3" x="192.083214" y="226.323661" width="54.5710187" height="48.6714491"></rect>
            <rect id="Rectangle" fill="#3F3D56" x="291.638451" y="226.323661" width="54.5710187" height="48.6714491"></rect>
            <rect id="Rectangle" fill="#3F3D56" x="394.880918" y="226.323661" width="54.5710187" height="48.6714491"></rect>
            <path d="M311.813968,274.790521 L311.094022,274.776458 C311.109508,273.979175 311.559453,255.188906 318.956813,249.995316 L319.370218,250.584484 C312.271318,255.568565 311.817486,274.598932 311.813968,274.790521 Z" id="Path" fill="#6C63FF"></path>
            <circle id="Oval" fill="#6C63FF" cx="322.763237" cy="246.157963" r="3.59972562"></circle>
            <path d="M322.035452,258.868401 C320.163006,259.456524 318.168946,259.542626 316.252775,259.118093 C318.738108,255.953838 322.8496,254.543555 326.753898,255.516103 C325.50174,257.027406 323.874662,258.18339 322.035452,258.868401 Z" id="Path" fill="#6C63FF"></path>
            <path d="M415.056436,274.790521 L414.336489,274.776458 C414.351976,273.979175 414.801921,255.188906 422.199281,249.995316 L422.612686,250.584484 C415.513785,255.568565 415.059954,274.598932 415.056436,274.790521 Z" id="Path" fill="#6C63FF"></path>
            <circle id="Oval" fill="#6C63FF" cx="426.005705" cy="246.157963" r="3.59972562"></circle>
            <path d="M425.27792,258.868401 C423.405474,259.456524 421.411414,259.542626 419.495243,259.118093 C421.980575,255.953838 426.092068,254.543555 429.996366,255.516103 C428.744207,257.027406 427.11713,258.18339 425.27792,258.868401 Z" id="Path" fill="#6C63FF"></path>
            <rect id="Rectangle" fill="#6C63FF" x="172.909613" y="367.913331" width="64.8952654" height="7.37446198"></rect>
            <rect id="Rectangle" fill="#F2F2F2" x="172.909613" y="380.449917" width="109.142037" height="4.42467719"></rect>
            <rect id="Rectangle" fill="#F2F2F2" x="172.909613" y="390.036717" width="103.242468" height="4.42467719"></rect>
            <rect id="Rectangle" fill="#F2F2F2" x="172.909613" y="399.623518" width="75.2195122" height="4.42467719"></rect>
            <circle id="Oval" fill="#6C63FF" opacity="0.4" cx="413.13426" cy="378.089905" r="23.0436451"></circle>
            <circle id="Oval" fill="#6C63FF" opacity="0.4" cx="370.486323" cy="389.095825" r="16.164946"></circle>
            <circle id="Oval" fill="#2F2E41" cx="85.5222382" cy="429.490089" r="58.2582496"></circle>
            <rect id="Rectangle" fill="#2F2E41" x="58.974175" y="475.211753" width="17.6987088" height="31.7101865"></rect>
            <rect id="Rectangle" fill="#2F2E41" x="94.3715925" y="475.211753" width="17.6987088" height="31.7101865"></rect>
            <ellipse id="Oval" fill="#2F2E41" cx="73.723099" cy="507.290663" rx="14.748924" ry="5.53084648"></ellipse>
            <ellipse id="Oval" fill="#2F2E41" cx="109.120516" cy="506.553217" rx="14.748924" ry="5.53084648"></ellipse>
            <circle id="Oval" fill="#FFFFFF" cx="86.9971306" cy="414.741165" r="19.9110473"></circle>
            <circle id="Oval" fill="#3F3D56" cx="86.9971306" cy="405.891811" r="6.63701578"></circle>
            <path d="M29.009767,375.311598 C24.3056789,354.244545 39.3427525,332.957172 62.5960167,327.764924 C85.8492808,322.572676 108.513178,335.441739 113.217273,356.508807 C117.921369,377.575875 102.51058,385.345748 79.257323,390.537996 C56.0040662,395.730245 33.7138552,396.378644 29.009767,375.311598 Z" id="Path" fill="#6C63FF"></path>
            <ellipse id="Oval" fill="#2F2E41" transform="translate(129.604108, 365.025788) rotate(-65.076830) translate(-129.604108, -365.025788) " cx="129.604108" cy="365.025788" rx="29.1291248" ry="9.14453197"></ellipse>
            <ellipse id="Oval" fill="#2F2E41" transform="translate(22.674410, 382.724467) rotate(-27.893290) translate(-22.674410, -382.724467) " cx="22.6744098" cy="382.724467" rx="9.14453197" ry="29.1291248"></ellipse>
            <ellipse id="Oval" fill="#2F2E41" transform="translate(566.708162, 386.165299) rotate(-21.078320) translate(-566.708162, -386.165299) " cx="566.708162" cy="386.165299" rx="9.14453197" ry="29.1291248"></ellipse>
            <circle id="Oval" fill="#2F2E41" cx="620.679238" cy="430.007688" r="58.2582496"></circle>
            <rect id="Rectangle" fill="#2F2E41" transform="translate(638.548017, 491.531667) rotate(179.839572) translate(-638.548017, -491.531667) " x="629.698628" y="475.676512" width="17.6987781" height="31.7103108"></rect>
            <polygon id="Rectangle" fill="#2F2E41" transform="translate(603.153030, 491.633836) rotate(179.839510) translate(-603.153030, -491.633836) " points="594.303676 475.778742 612.002385 475.778742 612.002385 507.488929 594.303676 507.488929"></polygon>
            <ellipse id="Oval" fill="#2F2E41" transform="translate(632.696304, 507.774844) rotate(-0.160490) translate(-632.696304, -507.774844) " cx="632.696304" cy="507.774844" rx="14.748924" ry="5.53084648"></ellipse>
            <ellipse id="Oval" fill="#2F2E41" transform="translate(597.296950, 507.136556) rotate(-0.160490) translate(-597.296950, -507.136556) " cx="597.29695" cy="507.136556" rx="14.748924" ry="5.53084648"></ellipse>
            <circle id="Oval" fill="#FFFFFF" cx="619.163041" cy="415.262952" r="19.9110473"></circle>
            <circle id="Oval" fill="#3F3D56" cx="619.163041" cy="415.262952" r="6.63701578"></circle>
            <path d="M677.039736,375.671111 C681.684792,354.590968 666.588154,333.345799 643.320444,328.218704 C620.052733,323.09161 597.424971,336.024115 592.779908,357.104258 C588.134845,378.184401 603.56733,385.911119 626.83504,391.038199 C650.102751,396.165279 672.394673,396.751261 677.039736,375.671111 Z" id="Path" fill="#6C63FF"></path>
            <ellipse id="Oval" fill="#2F2E41" transform="translate(686.221478, 402.791825) rotate(-25.534750) translate(-686.221478, -402.791825) " cx="686.221478" cy="402.791825" rx="29.1291248" ry="9.14453197"></ellipse>
            <path d="M649.354265,450.944663 C649.370238,456.646597 634.720302,467.946986 618.429157,467.992612 C602.138011,468.038238 586.81826,452.028377 586.802302,446.326443 C586.786343,440.624509 602.080181,447.38984 618.371326,447.344192 C634.662471,447.298544 649.3383,445.242766 649.354265,450.944663 Z" id="Path" fill="#FFFFFF"></path>
            <circle id="Oval" fill="#6C63FF" opacity="0.4" cx="638.420976" cy="345.642272" r="81.3018947"></circle>
            <circle id="Oval" fill="#2F2E41" cx="102.413318" cy="257.066532" r="58.2582496"></circle>
            <polygon id="Rectangle" fill="#2F2E41" transform="translate(74.028798, 314.505713) rotate(10.261060) translate(-74.028798, -314.505713) " points="65.1794439 298.65062 82.8781526 298.65062 82.8781526 330.360806 65.1794439 330.360806"></polygon>
            <polygon id="Rectangle" fill="#2F2E41" transform="translate(108.860084, 320.811182) rotate(10.261060) translate(-108.860084, -320.811182) " points="100.01073 304.956089 117.709438 304.956089 117.709438 336.666275 100.01073 336.666275"></polygon>
            <ellipse id="Oval" fill="#2F2E41" transform="translate(109.072870, 340.334942) rotate(-49.738940) translate(-109.072870, -340.334942) " cx="109.07287" cy="340.334942" rx="5.53084648" ry="14.748924"></ellipse>
            <ellipse id="Oval" fill="#2F2E41" transform="translate(74.967247, 334.160836) rotate(-49.738940) translate(-74.967247, -334.160836) " cx="74.9672466" cy="334.160836" rx="5.53084648" ry="14.748924"></ellipse>
            <circle id="Oval" fill="#FFFFFF" cx="106.491897" cy="242.816225" r="19.9110473"></circle>
            <circle id="Oval" fill="#3F3D56" cx="114.675278" cy="235.679177" r="6.63701578"></circle>
            <path d="M56.4557225,193.687781 C55.5796364,172.119692 74.1681846,153.851417 97.9744449,152.884396 C121.780705,151.917375 141.78973,168.617811 142.665831,190.1859 C143.541931,211.753989 126.99355,216.654422 103.187282,217.621442 C79.3810148,218.588463 57.3318086,215.255855 56.4557225,193.687781 Z" id="Path" fill="#6C63FF"></path>
            <ellipse id="Oval" fill="#2F2E41" transform="translate(156.206747, 246.452846) rotate(-12.910100) translate(-156.206747, -246.452846) " cx="156.206747" cy="246.452846" rx="29.1291248" ry="9.14453197"></ellipse>
            <ellipse id="Oval" fill="#2F2E41" transform="translate(41.847995, 265.470537) rotate(-12.910100) translate(-41.847995, -265.470537) " cx="41.8479952" cy="265.470537" rx="29.1291248" ry="9.14453197"></ellipse>
            <path d="M86.4126602,280.025364 C85.1067548,287.239159 89.8960457,294.145741 97.1098409,295.451647 C104.323636,296.757552 111.230218,291.968261 112.536124,284.754466 C113.842031,277.540672 108.264555,274.988002 101.050761,273.682095 C93.8369662,272.376188 87.7185668,272.811569 86.4126602,280.025364 Z" id="Path" fill="#FFFFFF"></path>
            <polygon id="Rectangle" fill="#3F3D56" transform="translate(206.463423, 225.217486) rotate(16.688760) translate(-206.463423, -225.217486) " points="179.177913 200.881762 233.748932 200.881762 233.748932 249.553211 179.177913 249.553211"></polygon>
            <path d="M192.723103,246.290401 L192.037522,246.070177 C192.281292,245.310925 198.108356,227.441335 206.685585,224.590832 L206.912387,225.273907 C198.681204,228.009434 192.781502,246.10789 192.723103,246.290401 Z" id="Path" fill="#6C63FF"></path>
            <circle id="Oval" fill="#6C63FF" cx="211.433669" cy="222.008207" r="3.59972562"></circle>
            <path d="M207.086439,233.97426 C205.123973,233.999896 203.189182,233.509733 201.475638,232.55281 C204.76497,230.235556 209.108275,230.065383 212.568828,232.118174 C210.935407,233.206234 209.044896,233.846274 207.086439,233.97426 L207.086439,233.97426 Z" id="Path" fill="#6C63FF"></path>
        </g>
    </g>
</svg>