<?xml version="1.0" encoding="UTF-8"?>
<svg width="139px" height="40px" viewBox="0 0 139 40" version="1.1" xmlns="http://www.w3.org/2000/svg" xmlns:xlink="http://www.w3.org/1999/xlink">
    <!-- Generator: Sketch 54.1 (76490) - https://sketchapp.com -->
    <title>logo2</title>
    <desc>Created with Sketch.</desc>
    <g id="makers" stroke="none" stroke-width="1" fill="none" fill-rule="evenodd">
        <g id="logo2" fill="#000000">
            <path d="M117.419355,0 L138.494624,0 L138.494624,40 L117.419355,40 L117.419355,0 Z M0.172043011,13.4623656 L3.61290323,13.4623656 L3.61290323,16.7311828 L3.69892473,16.7311828 C5.36201548,14.2078727 7.75625677,12.9462366 10.8817204,12.9462366 C12.2580714,12.9462366 13.5053708,13.232972 14.6236559,13.8064516 C15.7419411,14.3799312 16.5304637,15.3548318 16.9892473,16.7311828 C17.7347708,15.5268757 18.7168398,14.5949854 19.9354839,13.9354839 C21.154128,13.2759824 22.4946163,12.9462366 23.9569892,12.9462366 C25.0752744,12.9462366 26.086017,13.0680991 26.9892473,13.311828 C27.8924776,13.5555568 28.6666634,13.9354813 29.311828,14.4516129 C29.9569925,14.9677445 30.4587796,15.6344045 30.8172043,16.4516129 C31.175629,17.2688213 31.3548387,18.2508903 31.3548387,19.3978495 L31.3548387,35.6989247 L27.6989247,35.6989247 L27.6989247,21.1182796 C27.6989247,20.4301041 27.6415776,19.7849492 27.5268817,19.1827957 C27.4121858,18.5806422 27.1971342,18.0573499 26.8817204,17.6129032 C26.5663067,17.1684566 26.1290351,16.8172056 25.5698925,16.5591398 C25.0107499,16.301074 24.2867428,16.172043 23.3978495,16.172043 C21.5913888,16.172043 20.1720482,16.6881669 19.1397849,17.7204301 C18.1075217,18.7526933 17.5913978,20.1290237 17.5913978,21.8494624 L17.5913978,35.6989247 L13.9354839,35.6989247 L13.9354839,21.1182796 C13.9354839,20.4014301 13.8709684,19.7419385 13.7419355,19.1397849 C13.6129026,18.5376314 13.3906826,18.0143391 13.0752688,17.5698925 C12.7598551,17.1254458 12.3369202,16.7813632 11.8064516,16.5376344 C11.275983,16.2939056 10.5949862,16.172043 9.76344086,16.172043 C8.70250366,16.172043 7.79211849,16.3870946 7.03225806,16.8172043 C6.27239763,17.247314 5.65591634,17.7634378 5.1827957,18.3655914 C4.70967505,18.9677449 4.36559247,19.5913946 4.15053763,20.2365591 C3.9354828,20.8817237 3.82795699,21.4193527 3.82795699,21.8494624 L3.82795699,35.6989247 L0.172043011,35.6989247 L0.172043011,13.4623656 Z M56.5591398,35.6129032 C55.9283123,35.9856649 55.053769,36.172043 53.9354839,36.172043 C52.9892426,36.172043 52.2365619,35.9068127 51.6774194,35.3763441 C51.1182768,34.8458755 50.8387097,33.9785006 50.8387097,32.7741935 C49.8351204,33.9785006 48.6666733,34.8458755 47.3333333,35.3763441 C45.9999933,35.9068127 44.5591475,36.172043 43.0107527,36.172043 C42.0071634,36.172043 41.053768,36.0573488 40.1505376,35.827957 C39.2473073,35.5985652 38.4659531,35.2401458 37.8064516,34.7526882 C37.1469501,34.2652305 36.6236578,33.6272441 36.2365591,32.8387097 C35.8494604,32.0501753 35.655914,31.0967798 35.655914,29.9784946 C35.655914,28.7168396 35.8709656,27.6845918 36.3010753,26.8817204 C36.7311849,26.078849 37.2974875,25.4265258 38,24.9247312 C38.7025125,24.4229366 39.5053718,24.043012 40.4086022,23.7849462 C41.3118325,23.5268804 42.2365544,23.3118288 43.1827957,23.1397849 C44.1863849,22.9390671 45.1397804,22.788531 46.0430108,22.688172 C46.9462411,22.5878131 47.741932,22.4444454 48.4301075,22.2580645 C49.118283,22.0716837 49.6630804,21.7992849 50.0645161,21.4408602 C50.4659518,21.0824355 50.6666667,20.5591432 50.6666667,19.8709677 C50.6666667,19.0680963 50.5161305,18.4229415 50.2150538,17.9354839 C49.913977,17.4480262 49.5268841,17.0752701 49.0537634,16.8172043 C48.5806428,16.5591385 48.0501822,16.3870972 47.4623656,16.3010753 C46.874549,16.2150533 46.2939097,16.172043 45.7204301,16.172043 C44.1720353,16.172043 42.8817256,16.4659469 41.8494624,17.0537634 C40.8171991,17.64158 40.2580649,18.75268 40.172043,20.3870968 L36.516129,20.3870968 C36.573477,19.0107458 36.8602125,17.8494671 37.3763441,16.9032258 C37.8924757,15.9569845 38.5806409,15.1899671 39.4408602,14.6021505 C40.3010796,14.014334 41.2831486,13.5913991 42.3870968,13.3333333 C43.4910449,13.0752675 44.6738288,12.9462366 45.9354839,12.9462366 C46.9390731,12.9462366 47.9354789,13.0179204 48.9247312,13.1612903 C49.9139834,13.3046602 50.8100318,13.5985641 51.6129032,14.0430108 C52.4157746,14.4874574 53.0609295,15.1111071 53.5483871,15.9139785 C54.0358447,16.7168499 54.2795699,17.7634344 54.2795699,19.0537634 L54.2795699,30.4946237 C54.2795699,31.354843 54.3297486,31.9856611 54.4301075,32.3870968 C54.5304665,32.7885325 54.8673806,32.9892473 55.4408602,32.9892473 C55.756274,32.9892473 56.1290301,32.9175634 56.5591398,32.7741935 L56.5591398,35.6129032 Z M50.6236559,24.2150538 C50.1648723,24.5591415 49.5627277,24.8100351 48.8172043,24.9677419 C48.0716809,25.1254488 47.2903267,25.2544798 46.4731183,25.3548387 C45.6559099,25.4551976 44.8315454,25.5698918 44,25.6989247 C43.1684546,25.8279576 42.4229424,26.0358409 41.7634409,26.3225806 C41.1039394,26.6093204 40.5663103,27.0179185 40.1505376,27.5483871 C39.7347649,28.0788557 39.5268817,28.8028628 39.5268817,29.7204301 C39.5268817,30.3225837 39.6487443,30.8315391 39.8924731,31.2473118 C40.1362019,31.6630845 40.451611,31.9999987 40.8387097,32.2580645 C41.2258084,32.5161303 41.6774168,32.7025084 42.1935484,32.8172043 C42.70968,32.9319002 43.2544774,32.9892473 43.827957,32.9892473 C45.0322641,32.9892473 46.0645118,32.8243744 46.9247312,32.4946237 C47.7849505,32.1648729 48.4874525,31.7491065 49.0322581,31.2473118 C49.5770637,30.7455172 49.9784933,30.2007198 50.2365591,29.6129032 C50.4946249,29.0250867 50.6236559,28.4731209 50.6236559,27.9569892 L50.6236559,24.2150538 Z M60.172043,4.98924731 L63.827957,4.98924731 L63.827957,23.1827957 L73.9784946,13.4623656 L78.8817204,13.4623656 L70.0645161,21.5483871 L79.5268817,35.6989247 L74.8817204,35.6989247 L67.2688172,24.0860215 L63.827957,27.2688172 L63.827957,35.6989247 L60.172043,35.6989247 L60.172043,4.98924731 Z M97.7204301,22.4516129 C97.6630822,21.5913935 97.4695357,20.7741974 97.1397849,20 C96.8100342,19.2258026 96.3655942,18.5591426 95.8064516,18 C95.247309,17.4408574 94.5878174,16.9964174 93.827957,16.6666667 C93.0680966,16.3369159 92.2293953,16.172043 91.311828,16.172043 C90.3655867,16.172043 89.5125486,16.3369159 88.7526882,16.6666667 C87.9928277,16.9964174 87.3405045,17.4480258 86.7956989,18.0215054 C86.2508933,18.5949849 85.8207901,19.2616449 85.5053763,20.0215054 C85.1899626,20.7813658 85.0035845,21.5913935 84.9462366,22.4516129 L97.7204301,22.4516129 Z M101.247312,28.6451613 C100.759854,31.1397974 99.6845961,33.0179148 98.0215054,34.2795699 C96.3584146,35.5412249 94.2652456,36.172043 91.7419355,36.172043 C89.9641488,36.172043 88.4229456,35.8853075 87.1182796,35.311828 C85.8136135,34.7383484 84.7168503,33.935489 83.827957,32.9032258 C82.9390637,31.8709626 82.2724037,30.638 81.827957,29.2043011 C81.3835103,27.7706022 81.1326168,26.2078938 81.0752688,24.516129 C81.0752688,22.8243643 81.3333308,21.2759927 81.8494624,19.8709677 C82.365594,18.4659428 83.0896011,17.247317 84.0215054,16.2150538 C84.9534097,15.1827905 86.0573413,14.3799312 87.3333333,13.8064516 C88.6093254,13.232972 90.0071609,12.9462366 91.5268817,12.9462366 C93.5053862,12.9462366 95.1469469,13.3548346 96.4516129,14.172043 C97.7562789,14.9892514 98.8028634,16.0286675 99.5913978,17.2903226 C100.379932,18.5519776 100.92473,19.928308 101.225806,21.4193548 C101.526883,22.9104017 101.648746,24.3297424 101.591398,25.6774194 L84.9462366,25.6774194 C84.9175626,26.6523346 85.0322568,27.5770566 85.2903226,28.4516129 C85.5483884,29.3261692 85.9641548,30.1003551 86.5376344,30.7741935 C87.111114,31.448032 87.8422895,31.9856611 88.7311828,32.3870968 C89.6200761,32.7885325 90.6666606,32.9892473 91.8709677,32.9892473 C93.4193626,32.9892473 94.6881671,32.630828 95.6774194,31.9139785 C96.6666716,31.197129 97.3189948,30.1075342 97.6344086,28.6451613 L101.247312,28.6451613 Z M105.247312,13.4623656 L108.688172,13.4623656 L108.688172,18.1505376 L108.774194,18.1505376 C109.663087,16.344077 110.752682,15.010757 112.043011,14.1505376 C113.33334,13.2903183 114.967732,12.8888886 116.946237,12.9462366 L116.946237,16.8172043 C115.483864,16.8172043 114.236564,17.0179191 113.204301,17.4193548 C112.172038,17.8207905 111.340505,18.4085983 110.709677,19.1827957 C110.07885,19.9569931 109.620073,20.8960518 109.333333,22 C109.046594,23.1039482 108.903226,24.3727527 108.903226,25.8064516 L108.903226,35.6989247 L105.247312,35.6989247 L105.247312,13.4623656 Z M121.935484,28.688172 L118.27957,28.688172 C118.336918,30.064523 118.623653,31.2329701 119.139785,32.1935484 C119.655917,33.1541267 120.344082,33.9283125 121.204301,34.516129 C122.06452,35.1039456 123.053758,35.5268804 124.172043,35.7849462 C125.290328,36.043012 126.465944,36.172043 127.698925,36.172043 C128.81721,36.172043 129.942647,36.0645172 131.075269,35.8494624 C132.207891,35.6344075 133.225802,35.254483 134.129032,34.7096774 C135.032263,34.1648718 135.763438,33.4480331 136.322581,32.5591398 C136.881723,31.6702465 137.16129,30.5519781 137.16129,29.2043011 C137.16129,28.1433639 136.953407,27.2544839 136.537634,26.5376344 C136.121862,25.8207849 135.577064,25.2258088 134.903226,24.7526882 C134.229387,24.2795675 133.455202,23.899643 132.580645,23.6129032 C131.706089,23.3261634 130.81004,23.0824383 129.892473,22.8817204 C129.032254,22.6810026 128.172047,22.4874561 127.311828,22.3010753 C126.451609,22.1146944 125.677423,21.885306 124.989247,21.6129032 C124.301072,21.3405004 123.734769,20.9964178 123.290323,20.5806452 C122.845876,20.1648725 122.623656,19.6415802 122.623656,19.0107527 C122.623656,18.4372731 122.767024,17.971328 123.053763,17.6129032 C123.340503,17.2544785 123.713259,16.967743 124.172043,16.7526882 C124.630827,16.5376333 125.139782,16.3870972 125.698925,16.3010753 C126.258067,16.2150533 126.810033,16.172043 127.354839,16.172043 C127.956992,16.172043 128.551968,16.2365585 129.139785,16.3655914 C129.727602,16.4946243 130.265231,16.7025075 130.752688,16.9892473 C131.240146,17.2759871 131.641575,17.6559116 131.956989,18.1290323 C132.272403,18.6021529 132.458781,19.197129 132.516129,19.9139785 L136.172043,19.9139785 C136.086021,18.5663015 135.799286,17.4408647 135.311828,16.5376344 C134.82437,15.6344041 134.172047,14.9175654 133.354839,14.3870968 C132.53763,13.8566282 131.598572,13.483872 130.537634,13.2688172 C129.476697,13.0537624 128.315418,12.9462366 127.053763,12.9462366 C126.078848,12.9462366 125.096779,13.0680991 124.107527,13.311828 C123.118275,13.5555568 122.229395,13.9283129 121.44086,14.4301075 C120.652326,14.9319022 120.007171,15.5842254 119.505376,16.3870968 C119.003582,17.1899682 118.752688,18.150532 118.752688,19.2688172 C118.752688,20.7025161 119.111108,21.8207845 119.827957,22.6236559 C120.544806,23.4265273 121.440855,24.050177 122.516129,24.4946237 C123.591403,24.9390703 124.75985,25.2831529 126.021505,25.5268817 C127.28316,25.7706105 128.451608,26.0430092 129.526882,26.344086 C130.602156,26.6451628 131.498204,27.0394241 132.215054,27.5268817 C132.931903,28.0143394 133.290323,28.7311781 133.290323,29.6774194 C133.290323,30.3655948 133.118281,30.9318974 132.774194,31.3763441 C132.430106,31.8207908 131.992834,32.1577049 131.462366,32.3870968 C130.931897,32.6164886 130.351258,32.7741931 129.72043,32.8602151 C129.089603,32.946237 128.487458,32.9892473 127.913978,32.9892473 C127.168455,32.9892473 126.444448,32.9175634 125.741935,32.7741935 C125.039423,32.6308237 124.408605,32.3942669 123.849462,32.0645161 C123.29032,31.7347654 122.838711,31.2903254 122.494624,30.7311828 C122.150536,30.1720402 121.964158,29.4910434 121.935484,28.688172 Z" id="Combined-Shape"></path>
        </g>
    </g>
</svg>